<?xml version="1.0" encoding="UTF-8"?>
<!-- Официальный логотип WhatDaDev (мастер от заказчика, Фаза 0). Знак WD, чёрная заливка.
     На сайте используется основной (центрированный) контур; отрицательный дубль-артефакт из
     исходника опущен. Инлайн-версия для шапки — src/layouts/Base.astro (fill=currentColor). -->
<svg xmlns="http://www.w3.org/2000/svg" version="1.1" viewBox="0 0 3000 3000">
  <path fill="#000" d="M2753.05,1389.02l-174.05,472.37c-52.43,142.37-188.07,236.94-339.79,236.94h-818.21l255.24-692.81h314.92l-162.43,440.88h309.18c79.14,0,149.93-49.35,177.3-123.64l116.02-314.92c45.44-123.35-45.85-254.26-177.3-254.26h-610.81l-253.6,688.31-94.47,256.44h-188.95l-125.97-512.87-125.97,512.87h-188.95l-94.47-256.44L224.31,901.66h314.92l188.95,512.87,125.97-260.94h251.93l125.97,260.94,188.95-512.87h992.24c251.96,0,426.93,250.92,339.82,487.36Z"/>
</svg>
