<svg width="60" height="60" viewBox="0 0 60 60" fill="none" xmlns="http://www.w3.org/2000/svg">
<path d="M28.5859 0.0317669C45.9999 -0.756581 60.2872 13.2619 59.9951 30.523C59.7611 46.4108 46.9346 59.4659 31.0107 59.9917C28.4105 60.0499 25.9269 59.8163 23.5312 59.2906C22.8592 59.1446 22.3033 58.6181 22.1572 57.9175L16.168 31.5445C15.993 31.0481 16.6064 30.7566 16.8984 31.1656L24.0566 42.1763C24.6115 42.9936 25.7518 43.1103 26.4238 42.3804L26.6279 42.1763C28.0594 40.599 29.9297 39.4892 31.9746 38.9341C36.8249 37.5906 46.0286 34.9328 49.1553 32.7134C53.3037 29.7053 53.7421 25.2079 53.6836 23.0464C53.6543 22.4039 53.0998 21.8775 52.4277 21.9068L36.8252 22.5786C34.8384 22.666 32.8515 22.1986 31.0693 21.2642L27.6211 19.395C25.5757 18.3148 23.2095 17.8473 20.9014 18.1685L14.21 19.0454C10.12 19.6002 6.67237 22.2869 5.21191 26.1128C4.07201 29.1207 2.81516 32.8013 1.90918 36.5103C1.73357 37.0936 0.858254 37.0936 0.711914 36.481C0.156626 33.9111 -0.105977 31.1944 0.0400391 28.3618C0.887434 12.9119 13.1295 0.732819 28.5859 0.0317669ZM26.1084 22.8706C27.428 22.6868 28.6423 23.6348 28.8271 24.9517C29.0114 26.2678 28.0608 27.4792 26.7412 27.6636C25.4218 27.8741 24.181 26.9262 24.0225 25.5835C23.8376 24.2669 24.7887 23.0551 26.1084 22.8706Z" fill="black" style="fill:black;fill-opacity:1;"/>
</svg>
